<svg width="25" height="25" viewBox="0 0 25 25" fill="none" xmlns="http://www.w3.org/2000/svg">
<g id="Iconly/Broken/Search" opacity="0.7">
<g id="Search" opacity="0.7">
<path id="Search_2" opacity="0.7" d="M24.6329 23.2483L20.508 19.2168L20.4108 19.0698C20.2291 18.8903 19.984 18.7897 19.7285 18.7897C19.4731 18.7897 19.228 18.8903 19.0463 19.0698V19.0698C17.3343 20.6268 15.1234 21.5231 12.8103 21.598C10.4971 21.6729 8.23286 20.9214 6.42371 19.4784C4.63507 18.0612 3.43566 16.0312 3.05746 13.781C2.67927 11.5309 3.14915 9.2205 4.37624 7.29665C5.63556 5.35982 7.54573 3.93661 9.76221 3.28373C11.9787 2.63084 14.3556 2.79126 16.4642 3.73605C18.5621 4.64671 20.2504 6.29907 21.2055 8.37669C22.1607 10.4543 22.3157 12.8112 21.6408 14.9959C21.5909 15.1556 21.5849 15.3257 21.6232 15.4886C21.6616 15.6514 21.743 15.8009 21.8589 15.9216C21.9767 16.0441 22.1242 16.1341 22.2871 16.1828C22.45 16.2314 22.6228 16.2372 22.7885 16.1994C22.9535 16.1633 23.1061 16.0844 23.231 15.9707C23.3559 15.857 23.4487 15.7124 23.5001 15.5516C24.3082 12.9571 24.1451 10.1574 23.0411 7.6743C21.9371 5.1912 19.9676 3.19416 17.4997 2.05542C15.0176 0.877187 12.1999 0.609474 9.54022 1.29916C6.88049 1.98885 4.54823 3.59198 2.95186 5.82781C1.39049 8.04495 0.694542 10.7566 0.995269 13.4514C1.296 16.1462 2.57261 18.6378 4.58435 20.4564C6.62175 22.3051 9.24363 23.3801 11.9927 23.4939C14.7418 23.6078 17.4436 22.7532 19.627 21.0793L23.2795 24.6487C23.4626 24.8255 23.7072 24.9243 23.9618 24.9243C24.2164 24.9243 24.461 24.8255 24.6441 24.6487C24.7336 24.5611 24.8047 24.4565 24.8532 24.3411C24.9018 24.2257 24.9268 24.1017 24.9268 23.9765C24.9268 23.8513 24.9018 23.7274 24.8532 23.612C24.8047 23.4966 24.7336 23.392 24.6441 23.3044V23.3044L24.6329 23.2483Z" fill="black"/>
</g>
</g>
</svg>
