<!-- <svg width="25" height="25" fill="none" xmlns="http://www.w3.org/2000/svg"><path opacity=".7" d="M24.633 23.248l-4.125-4.031-.097-.147a.97.97 0 00-1.365 0v0a9.737 9.737 0 01-12.622.408A9.219 9.219 0 014.376 7.297a9.69 9.69 0 0112.088-3.56 9.289 9.289 0 015.177 11.259.935.935 0 00.218.926.986.986 0 001.372.049.964.964 0 00.27-.42A11.195 11.195 0 0017.5 2.056 11.708 11.708 0 002.952 5.828a11.102 11.102 0 001.632 14.628 11.748 11.748 0 0015.043.623l3.652 3.57a.982.982 0 001.365 0 .94.94 0 000-1.345v0l-.011-.056z" fill="none" fill-rule="evenodd" stroke="currentColor"/></svg> -->

<svg width="20" height="20" class="DocSearch-Search-Icon" viewBox="0 0 20 20" xmlns="http://www.w3.org/2000/svg"><path d="M14.386 14.386l4.0877 4.0877-4.0877-4.0877c-2.9418 2.9419-7.7115 2.9419-10.6533 0-2.9419-2.9418-2.9419-7.7115 0-10.6533 2.9418-2.9419 7.7115-2.9419 10.6533 0 2.9419 2.9418 2.9419 7.7115 0 10.6533z" stroke="currentColor" fill="none" fill-rule="evenodd" stroke-linecap="round" stroke-linejoin="round"></path></svg>